<svg xmlns="http://www.w3.org/2000/svg" xmlns:xlink="http://www.w3.org/1999/xlink" width="60" height="60" viewBox="0 0 60 60"><defs><clipPath id="a"><rect width="60" height="60" transform="translate(1403 1029)" fill="#fff"/></clipPath></defs><g transform="translate(-1403 -1029)" clip-path="url(#a)"><g transform="translate(1413.715 1029)"><path d="M4.923,1.955A1.163,1.163,0,0,0,4.6,1.583a2,2,0,0,0-.445-.247,1.287,1.287,0,0,0-.52-.1,1.856,1.856,0,0,0-.866.2,1.633,1.633,0,0,0-.569.52,2.449,2.449,0,0,0-.3.742,3.315,3.315,0,0,0-.1.866,3.068,3.068,0,0,0,.1.816,2.3,2.3,0,0,0,.3.717,1.633,1.633,0,0,0,.569.52,1.856,1.856,0,0,0,.866.2,1.336,1.336,0,0,0,1.039-.421A1.757,1.757,0,0,0,5.146,4.3H6.581a2.87,2.87,0,0,1-.3,1.138,2.425,2.425,0,0,1-.619.866,2.7,2.7,0,0,1-.891.544,3.439,3.439,0,0,1-1.138.2,3.662,3.662,0,0,1-1.41-.272,3.959,3.959,0,0,1-1.039-.742A3.538,3.538,0,0,1,.544,4.923,4.132,4.132,0,0,1,.322,3.563a4.206,4.206,0,0,1,.223-1.41,3.291,3.291,0,0,1,.643-1.113A3.142,3.142,0,0,1,2.227.272,3.662,3.662,0,0,1,3.637,0,3.513,3.513,0,0,1,4.676.148a3.835,3.835,0,0,1,.891.47,3.216,3.216,0,0,1,.643.767,2.7,2.7,0,0,1,.322,1.039H5.1a1.089,1.089,0,0,0-.173-.47Z" fill="#231f20"/><path d="M8.684,5.715a1.262,1.262,0,0,0,.891.3,1.336,1.336,0,0,0,.693-.2.816.816,0,0,0,.346-.445H11.8a2.35,2.35,0,0,1-.866,1.262A2.6,2.6,0,0,1,9.525,7a2.7,2.7,0,0,1-1.039-.173,2.2,2.2,0,0,1-.792-.52A2.251,2.251,0,0,1,7.2,5.493a2.87,2.87,0,0,1-.173-1.039A2.722,2.722,0,0,1,7.2,3.439a2.3,2.3,0,0,1,.52-.816A2.449,2.449,0,0,1,9.525,1.88a2.1,2.1,0,0,1,1.064.247,1.955,1.955,0,0,1,.767.643,2.375,2.375,0,0,1,.421.915,3.192,3.192,0,0,1,.1,1.089H8.363a1.361,1.361,0,0,0,.322.94Zm1.534-2.548a1.014,1.014,0,0,0-.742-.272,1.014,1.014,0,0,0-.52.1.99.99,0,0,0-.346.272.668.668,0,0,0-.173.346.866.866,0,0,0-.074.322H10.54A1.46,1.46,0,0,0,10.218,3.167Z" fill="#231f20"/><path d="M13.756,2.029v.891h.025a1.46,1.46,0,0,1,.247-.421,1.163,1.163,0,0,1,.371-.322,1.509,1.509,0,0,1,.445-.223,1.583,1.583,0,0,1,.495-.074l.272.049V3.167h-.47a1.534,1.534,0,0,0-.619.124,1.163,1.163,0,0,0-.421.3,1.509,1.509,0,0,0-.223.495,4.825,4.825,0,0,0-.049.619V6.878H12.494V2.029Z" fill="#231f20"/><path d="M19.2,2.029v.891h-.965v2.4a.792.792,0,0,0,.1.47.643.643,0,0,0,.445.1H19.2V6.9l-.371.049h-.99l-.495-.173A.94.94,0,0,1,17,6.433a1.336,1.336,0,0,1-.124-.594V2.919h-.792V2.029h.792V.544h1.361V2.029Z" fill="#231f20"/><path d="M19.892,1.262V.148h1.336V1.262Zm1.336.767V6.878H19.892V2.029Z" fill="#231f20"/><path d="M21.772,2.919V2.029h.792v-.4A1.484,1.484,0,0,1,22.985.569,1.608,1.608,0,0,1,24.2.148h.717v.99H24.42a.544.544,0,0,0-.4.124.742.742,0,0,0-.124.47v.3h.94v.891H23.9V6.878H22.564V2.919Z" fill="#231f20"/><path d="M25.632,1.262V.148h1.336V1.262Zm1.336.767V6.878H25.632V2.029Z" fill="#231f20"/><path d="M29.1,5.715a1.188,1.188,0,0,0,.866.3,1.262,1.262,0,0,0,.693-.2c.2-.148.322-.272.346-.445h1.188a2.227,2.227,0,0,1-.866,1.262A2.6,2.6,0,0,1,29.912,7a2.7,2.7,0,0,1-1.039-.173,2.449,2.449,0,0,1-.792-.52,2.672,2.672,0,0,1-.495-.816,3.513,3.513,0,0,1-.173-1.039,2.746,2.746,0,0,1,.2-1.014,1.955,1.955,0,0,1,.495-.816,2.994,2.994,0,0,1,.792-.544,2.647,2.647,0,0,1,1.014-.2A2.2,2.2,0,0,1,31,2.128a2.054,2.054,0,0,1,.742.643,2.87,2.87,0,0,1,.445.915,3.192,3.192,0,0,1,.074,1.089H28.749a1.386,1.386,0,0,0,.346.94ZM30.6,3.167a.965.965,0,0,0-.742-.272,1.138,1.138,0,0,0-.52.1A1.311,1.311,0,0,0,29,3.266a.915.915,0,0,0-.173.346l-.074.322h2.177a1.46,1.46,0,0,0-.322-.767Z" fill="#231f20"/><path d="M36.345,6.26a1.361,1.361,0,0,1-.619.569A2,2,0,0,1,34.86,7a1.979,1.979,0,0,1-.965-.2,2.573,2.573,0,0,1-.693-.569,2.944,2.944,0,0,1-.4-.841,3.291,3.291,0,0,1-.124-.99,2.969,2.969,0,0,1,.124-.94,3.117,3.117,0,0,1,.4-.816A2.1,2.1,0,0,1,33.9,2.1a1.93,1.93,0,0,1,1.757-.025,1.336,1.336,0,0,1,.619.544H36.3V.148h1.336v6.73H36.345V6.26Zm-.074-2.4a1.682,1.682,0,0,0-.173-.495,1.237,1.237,0,0,0-.371-.346,1.262,1.262,0,0,0-1.089,0,1.658,1.658,0,0,0-.371.346,1.732,1.732,0,0,0-.2.495,2.4,2.4,0,0,0-.049.594,2.3,2.3,0,0,0,.049.569,1.781,1.781,0,0,0,.223.495.99.99,0,0,0,.371.346.915.915,0,0,0,.52.148,1.113,1.113,0,0,0,.544-.124,1.336,1.336,0,0,0,.371-.371,1.46,1.46,0,0,0,.173-.495,2.3,2.3,0,0,0,.074-.594,2.1,2.1,0,0,0-.074-.569Z" fill="#231f20"/><path d="M10.96,17.838h7.793c1.905,0,4.4,0,5.69.767a5.171,5.171,0,0,1,2.524,4.5,4.967,4.967,0,0,1-3.192,4.825v.049a4.912,4.912,0,0,1,4.107,5.171,6.107,6.107,0,0,1-6.532,6.185H10.96Zm2.845,9.228h5.74c3.241,0,4.577-1.163,4.577-3.414,0-2.994-2.1-3.414-4.577-3.414h-5.74Zm0,9.872h7.175a3.685,3.685,0,0,0,4.033-3.86c0-2.8-2.251-3.587-4.651-3.587H13.806Z" fill="#231f20"/><path d="M35.207,28.6A16.379,16.379,0,1,1,18.853,12.247,16.379,16.379,0,0,1,35.207,28.6ZM18.853,9.748A18.853,18.853,0,1,0,37.681,28.576,18.853,18.853,0,0,0,18.853,9.748Z" fill="#231f20"/><path d="M3.489,51.486a1.039,1.039,0,0,0-1.064-.816c-.94,0-1.287.792-1.287,1.633s.346,1.583,1.287,1.583,1.014-.445,1.089-1.064H4.528a2.008,2.008,0,0,1-2.1,1.955A2.473,2.473,0,0,1,.1,52.3a2.341,2.341,0,0,1,2.326-2.524A1.962,1.962,0,0,1,4.5,51.486Z" fill="#231f20"/><path d="M6.73,51.115a1.689,1.689,0,0,1,1.781,1.831A1.67,1.67,0,0,1,6.73,54.752a1.682,1.682,0,0,1-1.781-1.806A1.7,1.7,0,0,1,6.73,51.115Zm0,2.919c.643,0,.841-.544.841-1.089s-.2-1.113-.841-1.113-.841.544-.841,1.113.2,1.089.841,1.089Z" fill="#231f20"/><path d="M9.055,51.214h.891v.643h.025a1.212,1.212,0,0,1,1.089-.742h.223v.891h-.346c-.693,0-.94.495-.94,1.089v1.559h-.94Z" fill="#231f20"/><path d="M11.777,51.214h.915v.445h0a1.138,1.138,0,0,1,1.039-.544c1.064,0,1.559.866,1.559,1.856s-.495,1.781-1.509,1.781a1.212,1.212,0,0,1-1.039-.52h-.025v1.633h-.94Zm2.573,1.732c0-.544-.223-1.113-.841-1.113s-.816.544-.816,1.113.223,1.089.841,1.089S14.35,53.515,14.35,52.946Z" fill="#231f20"/><path d="M17.542,51.115a1.7,1.7,0,0,1,1.781,1.831,1.682,1.682,0,0,1-1.781,1.806,1.819,1.819,0,0,1,0-3.637Zm0,2.919c.643,0,.841-.544.841-1.089s-.2-1.113-.841-1.113-.841.544-.841,1.113.2,1.089.841,1.089Z" fill="#231f20"/><path d="M19.941,51.214h.891v.643h.025a1.188,1.188,0,0,1,1.089-.742h.2v.891h-.322c-.693,0-.94.495-.94,1.089v1.559h-.94Z" fill="#231f20"/><path d="M22.49,52.278c.049-.891.841-1.163,1.608-1.163s1.534.148,1.534.99v1.781a1.979,1.979,0,0,0,.1.767h-.94a.767.767,0,0,1-.074-.322,1.658,1.658,0,0,1-1.163.421,1.022,1.022,0,0,1-1.163-1.039c0-.717.569-.965,1.163-1.039s1.113-.074,1.113-.47-.272-.445-.594-.445a.582.582,0,0,0-.643.52Zm2.177.693c-.148.148-.495.148-.767.2s-.569.173-.569.52.272.421.569.421a.7.7,0,0,0,.767-.792Z" fill="#231f20"/><path d="M27.562,51.214h.693v.619h-.693V53.54c0,.322.074.421.4.421h.3v.717a2.128,2.128,0,0,1-.569.049c-.569,0-1.064-.148-1.064-.816V51.858h-.594v-.643h.594V50.175h.94Z" fill="#231f20"/><path d="M29.665,50.67h-.94V49.9h.94Zm-.94.544h.94v3.439h-.94Z" fill="#231f20"/><path d="M31.966,51.115a1.689,1.689,0,0,1,1.781,1.831,1.782,1.782,0,1,1-3.563,0A1.7,1.7,0,0,1,31.966,51.115Zm0,2.919c.643,0,.841-.544.841-1.089s-.2-1.113-.841-1.113-.841.544-.841,1.113.2,1.089.841,1.089Z" fill="#231f20"/><path d="M34.366,51.214h.891v.47h.025a1.287,1.287,0,0,1,1.064-.569c1.014,0,1.262.569,1.262,1.41v2.128h-.965V52.7c0-.544-.148-.841-.594-.841s-.742.3-.742.99v1.806h-.94Z" fill="#231f20"/><rect width="37.557" height="2.402" transform="translate(0.074 57.598)" fill="#231f20"/><path d="M38.448,50.5a.445.445,0,0,1-.346.148.5.5,0,0,1-.346-.148.445.445,0,0,1-.148-.346.52.52,0,0,1,.495-.495.445.445,0,0,1,.346.148.5.5,0,0,1,.148.346A.445.445,0,0,1,38.448,50.5Zm-.643-.643a.421.421,0,0,0,0,.594.371.371,0,0,0,.594,0,.42.42,0,1,0-.594-.594Zm.3.025h.148a.148.148,0,0,1,.074.148.124.124,0,0,1-.049.1H38.2l.1.049c0,.025.025.049.025.074v.1h-.1V50.3c0-.049,0-.1-.049-.124H38V50.4h-.1v-.544Zm.1.1H38v.2h.173c.049,0,.049-.025.049-.074s0-.124-.025-.124Z" fill="#231f20"/></g></g></svg>