<svg xmlns="http://www.w3.org/2000/svg" xmlns:xlink="http://www.w3.org/1999/xlink" width="60" height="60" viewBox="0 0 60 60"><defs><clipPath id="a"><rect width="60" height="60" transform="translate(462 1029)" fill="#fff"/></clipPath></defs><g transform="translate(-462 -1029)" clip-path="url(#a)"><g transform="translate(459.734 1026.803)"><path d="M53.157,16.162h1.149a2.339,2.339,0,0,0,2.336-2.336V9.962a2.339,2.339,0,0,0-2.336-2.336H51.389L50.581,3.7a1.891,1.891,0,0,0-1.843-1.5H15.783a1.878,1.878,0,0,0-1.831,1.49l-.808,3.927H10.227A2.339,2.339,0,0,0,7.891,9.949v3.864a2.339,2.339,0,0,0,2.336,2.336h1.149l6.136,43.144a3.4,3.4,0,0,0,3.333,2.9H43.687a3.362,3.362,0,0,0,3.333-2.9ZM45.278,59.04a1.619,1.619,0,0,1-1.6,1.389H20.846a1.628,1.628,0,0,1-1.6-1.389l-6.1-42.879H51.376Zm9.609-45.227a.566.566,0,0,1-.568.568H10.227a.566.566,0,0,1-.568-.568V9.949a.566.566,0,0,1,.568-.568h7.879a.884.884,0,1,0,0-1.768H14.937l.732-3.573a.12.12,0,0,1,.1-.088H48.737a.107.107,0,0,1,.1.088l.732,3.573h-27.4a.884.884,0,1,0,0,1.768H54.293a.566.566,0,0,1,.568.568l.025,3.864Z"/><path d="M33.308,35.164a5.365,5.365,0,0,0-.669-2.109,5.267,5.267,0,0,0-1.515-1.692,8.181,8.181,0,0,0-5.77-1.162c-3.03.328-6.2-1.465-6.566-1.667a.888.888,0,0,0-1.414.808c.53,5.2,1.768,8.737,3.321,10.96a7.511,7.511,0,0,0,3.687,2.98,5.676,5.676,0,0,0,3.977-.126,7.709,7.709,0,0,0,1.073-.53c-.063-.114-.139-.24-.215-.354a5.544,5.544,0,0,0-.9-1.061,3.349,3.349,0,0,1-.606.29,3.937,3.937,0,0,1-2.74.1,5.818,5.818,0,0,1-2.79-2.311c-1.237-1.768-2.247-4.52-2.8-8.485A12.755,12.755,0,0,0,25.53,31.97a6.515,6.515,0,0,1,4.545.833,3.449,3.449,0,0,1,1.01,1.124,4.084,4.084,0,0,1,.455,1.439,4.993,4.993,0,0,1-.063,1.439,10.985,10.985,0,0,1,1.465,1.4A7.147,7.147,0,0,0,33.308,35.164Z"/><path d="M41.629,37.462a.9.9,0,0,0-1.25.2c-.013.013-.013.025-.025.025a6.825,6.825,0,0,1-2.576,1.995,8.276,8.276,0,0,0-4.116,3.876c-1.212-4.444-3.737-5.833-6.174-7.172A9.469,9.469,0,0,1,23.9,33.6a.9.9,0,0,0-1.477,1.01,10.892,10.892,0,0,0,4.192,3.346c2.563,1.4,5.265,2.879,5.833,9.293H33.5c.265,0,.934,0,1.01.025.543-4.04,2.374-5.051,4.116-5.985a8.379,8.379,0,0,0,3.194-2.576A.889.889,0,0,0,41.629,37.462Z"/><path d="M44.836,33.712a1,1,0,0,0-.543.114,9.077,9.077,0,0,1-4.773,1.212,6.212,6.212,0,0,0-4.432.909,4.3,4.3,0,0,0-1.2,1.326,4.208,4.208,0,0,0-.505,1.654,5.367,5.367,0,0,0,.076,1.679,9.718,9.718,0,0,1,1.692-1.439v-.051a2.647,2.647,0,0,1,.3-.972,2.265,2.265,0,0,1,.682-.745,4.539,4.539,0,0,1,3.194-.581,9.267,9.267,0,0,0,4.293-.72,14.051,14.051,0,0,1-1.982,5.783A4.027,4.027,0,0,1,39.7,43.51a2.519,2.519,0,0,1-1.465.063,7.929,7.929,0,0,0-1.237,1.439l.189.076a4.459,4.459,0,0,0,3.106.1,5.79,5.79,0,0,0,2.841-2.3c1.162-1.679,2.1-4.331,2.5-8.22A.885.885,0,0,0,44.836,33.712Z"/></g></g></svg>