<svg xmlns="http://www.w3.org/2000/svg" xmlns:xlink="http://www.w3.org/1999/xlink" width="60" height="60" viewBox="0 0 60 60"><defs><clipPath id="a"><rect width="60" height="60" transform="translate(773 1052)" fill="#fff" stroke="#707070" stroke-width="1"/></clipPath></defs><g transform="translate(-773 -1052)" clip-path="url(#a)"><g transform="translate(716.064 1013.713)"><path d="M85.213,40.016A11.778,11.778,0,0,0,73.164,39.9l17.769,9.213S91.59,43.814,85.213,40.016Z"/><path d="M84.112,52.488c6.259,1.571,6.658-2.508,6.658-2.508L73.047,40.72S77.852,50.917,84.112,52.488Z"/><path d="M111.914,50.917s-2.461-5.837-8.181-5.837c-3.587,0-5.884,1.688-9.166,4.313-1.875,1.5-6.962,5.486-11.041,8.65a56.377,56.377,0,0,0-18.355-3.4h-.516a.073.073,0,0,0-.047.023c-.023,0-.047.023-.094.047a.254.254,0,0,0-.094.117L57.879,67a.442.442,0,0,0-.047.188h0v.07l.07.141.07.07a.266.266,0,0,0,.188.07h.375a115.362,115.362,0,0,1,12.471.727c.375.047.75.094,1.149.141a23.059,23.059,0,0,0-6.7,15.964c0,9.705,9.072,13.737,13.9,13.9,5.72.211,8.111-1.664,12.237-3.61,2.133-1.008,5.556-3,7.478-5.931A19.927,19.927,0,0,0,102.4,77.993c0-4.478-1.805-9.213-6.611-13.1A40.2,40.2,0,0,0,87.675,59.8l5.65-7.525s-1.031,5.017,5.064,5.462,13.292-5.884,13.292-5.884-17.113.328-17.441,0-.211-.492,0-.7C94.473,50.917,111.914,50.917,111.914,50.917ZM90.535,92.926l-.164.164a3.053,3.053,0,0,1-.938.539l-.023.023c-19.6-1.125-9.565-21.473-8.463-23.583a27.964,27.964,0,0,1,6.7,2.6c5.908,3.446,7.666,7.15,7.666,10.432a12.973,12.973,0,0,1-2.485,7.08,20.957,20.957,0,0,1-1.711,2.157C90.863,92.574,90.675,92.785,90.535,92.926Zm4.806-27.5c4.642,3.774,6.329,8.252,6.353,12.565a18.944,18.944,0,0,1-3.212,10.338,14.059,14.059,0,0,1-6.1,5.157,3.855,3.855,0,0,1-.961.188h-.68l.023-.023.047-.047c.023-.023,5.2-4.642,5.228-10.549,0-3.563-1.969-7.548-8.017-11.041-4.36-2.532-11.018-3.821-16.949-4.478a120.787,120.787,0,0,0-12.331-.727l6.189-11.487h.258a55.573,55.573,0,0,1,17.7,3.188l-5.04,3.915a14.49,14.49,0,0,1,3.845.8,12.513,12.513,0,0,1,2.415,1.266l3.141-4.173A43.575,43.575,0,0,1,95.341,65.428Z"/><path d="M114.446,41.071a1.4,1.4,0,0,0-.141-.164,1.346,1.346,0,0,1-.164-.094.726.726,0,0,0,.445-.211.674.674,0,0,0,.164-.422.538.538,0,0,0-.094-.328.46.46,0,0,0-.211-.211,1.269,1.269,0,0,0-.352-.094h-1.149v2.227h.445V40.86h.117a.432.432,0,0,1,.3.094,1.214,1.214,0,0,1,.3.469l.188.352h.563l-.258-.445C114.516,41.188,114.47,41.095,114.446,41.071Zm-.375-.563a2.31,2.31,0,0,1-.492.023h-.188v-.61h.188a2.31,2.31,0,0,1,.492.023.378.378,0,0,1,.164.094.2.2,0,0,1,.047.164.339.339,0,0,1-.047.164A.439.439,0,0,1,114.071,40.509Z"/><path d="M115.712,39.618a2.043,2.043,0,0,0-.774-.774,2.032,2.032,0,0,0-2.063,0,2.043,2.043,0,0,0-.774.774,2.119,2.119,0,0,0,0,2.11,2.043,2.043,0,0,0,.774.774,2.119,2.119,0,0,0,2.11,0,2.043,2.043,0,0,0,.774-.774,2.092,2.092,0,0,0,.281-1.055A2.773,2.773,0,0,0,115.712,39.618Zm-.352,1.9a1.641,1.641,0,0,1-.633.633,1.755,1.755,0,0,1-.844.234,1.74,1.74,0,0,1-1.477-.867,1.755,1.755,0,0,1-.234-.844,1.53,1.53,0,0,1,.234-.844,1.642,1.642,0,0,1,.633-.633,1.734,1.734,0,0,1,.844-.211,1.8,1.8,0,0,1,.844.211,1.74,1.74,0,0,1,.867,1.477A1.755,1.755,0,0,1,115.36,41.517Z"/></g></g></svg>